<svg width="236" height="57" viewBox="0 0 236 57" fill="none" xmlns="http://www.w3.org/2000/svg">
<path d="M41.8548 41C37.3899 40.9743 33.6967 31.8599 33.6967 27.2182C33.6967 19.6359 39.3846 17.976 41.5768 17.976C42.5646 17.976 43.6195 18.3639 44.5499 18.7072C45.2005 18.9467 45.8734 19.1939 46.2477 19.1939C46.4717 19.1939 46.9995 18.9836 47.4656 18.7991C48.4595 18.4034 49.6963 17.9116 51.1366 17.9116C51.1391 17.9116 51.1426 17.9116 51.1451 17.9116C52.2205 17.9116 55.4813 18.1476 57.4417 21.0916L57.9009 21.7817L57.24 22.2804C56.2959 22.9928 54.5732 24.2922 54.5732 26.8663C54.5732 29.915 56.5241 31.0875 57.4614 31.6514C57.8751 31.9003 58.3034 32.1569 58.3034 32.7183C58.3034 33.0848 55.3783 40.9545 51.1305 40.9545C50.0911 40.9545 49.3564 40.6421 48.7084 40.3666C48.0527 40.0876 47.487 39.8474 46.5523 39.8474C46.0785 39.8474 45.4794 40.0714 44.8451 40.3091C43.9783 40.6326 42.9972 41 41.884 41H41.8548Z" fill="white"/>
<path d="M51.5866 11C51.6973 14.9888 48.8446 17.7561 45.9953 17.5825C45.5258 14.3993 48.8443 11 51.5866 11Z" fill="white"/>
<rect x="0.5" y="0.5" width="235" height="56" stroke="white" stroke-linecap="round" stroke-linejoin="round"/>
</svg>
