<svg width="100" height="69" viewBox="0 0 100 69" fill="none" xmlns="http://www.w3.org/2000/svg">
<path d="M48.7 68.3748C45.85 68.3748 34.07 67.6648 23.23 56.8248C11.25 44.8448 14.2 29.0648 16.34 23.9848C18.9 17.9448 21.1 15.2948 28.11 9.82483L30.24 12.5548C23.37 17.9248 21.7 20.2148 19.53 25.3348C17.76 29.5048 15.1 43.7948 25.67 54.3648C36.81 65.5048 49.11 64.9048 49.23 64.8948H91.13L83.07 56.8348L85.52 54.3848L99.5 68.3548H49.33C49.28 68.3548 49.06 68.3748 48.7 68.3748Z" fill="#4FFFCA"/>
<path d="M71.39 58.5348L69.26 55.8048C76.13 50.4348 77.8 48.1448 79.97 43.0248C81.74 38.8548 84.4 24.5648 73.83 13.9948C62.69 2.86481 50.4 3.46481 50.27 3.47481H8.37L16.43 11.5348L13.98 13.9948L0 0.0148099H50.17C50.63 -0.0151901 64.06 -0.67519 76.28 11.5448C88.26 23.5248 85.31 39.3048 83.17 44.3748C80.6 50.4248 78.4 53.0648 71.39 58.5348Z" fill="#4FFFCA"/>
<path d="M59.6201 33.0648C60.3001 32.6148 60.9801 31.9448 61.4401 31.2748C62.1201 30.1548 62.5801 28.8148 62.5801 27.2448C62.5801 25.0048 61.6701 22.9848 59.8501 21.8648C58.0301 20.5248 55.7601 20.0748 52.5801 20.0748H52.3501V15.8148H48.9401V20.0748H48.2601V15.8148H44.8501V20.0748H37.5801V23.4348H40.5301V44.0548H37.5801V47.4148H44.8501V51.4448H48.2601V47.4148H48.9401V51.4448H52.3501V47.4148H53.4901C56.9001 47.4148 59.3901 46.7448 61.2101 45.3948C63.0301 44.0548 63.9401 42.2548 63.9401 39.7948C63.9401 38.0048 63.4901 36.4348 62.3501 35.0848C61.8901 34.1848 60.7501 33.5148 59.6201 33.0648ZM60.0701 39.5648C60.0701 41.1348 59.6201 42.2548 58.4801 42.9248C57.3401 43.5948 55.7501 44.0448 53.4801 44.0448H44.6201V35.3048H53.4801C58.0301 35.0848 60.0701 36.6548 60.0701 39.5648ZM44.6301 31.7248V23.4348H52.5801C54.6201 23.4348 56.2101 23.8848 57.1201 24.5548C58.0301 25.2248 58.7101 26.3448 58.7101 27.6948C58.7101 29.0348 58.2601 29.9348 57.3501 30.6048C56.2101 31.2748 54.6201 31.7248 52.8101 31.7248H44.6301Z" fill="#4FFFCA"/>
</svg>
