<svg width="66" height="85" viewBox="0 0 66 85" fill="none" xmlns="http://www.w3.org/2000/svg">
<g clip-path="url(#clip0_25_466)">
<path d="M65.51 84.96H0V38.66H65.51V84.96ZM3.47 81.5H62.04V42.13H3.47V81.5Z" fill="#4FFFCA"/>
<path d="M31.81 33.8801L19.88 21.9401L22.33 19.4901L28.34 25.5101V4.18005H31.81V33.8801Z" fill="#4FFFCA"/>
<path d="M38.5399 29.69H35.0699V0L47.0099 11.93L44.5499 14.39L38.5399 8.37V29.69Z" fill="#4FFFCA"/>
<path d="M65.5099 69.22H53.5699C49.2999 69.22 45.8199 65.74 45.8199 61.47V58.7C45.8199 54.43 49.2999 50.95 53.5699 50.95H65.5099V69.22ZM53.5699 54.4199C51.2099 54.4199 49.2899 56.34 49.2899 58.7V61.4799C49.2899 63.8399 51.2099 65.76 53.5699 65.76H62.0399V54.4199H53.5699Z" fill="#4FFFCA"/>
</g>
<defs>
<clipPath id="clip0_25_466">
<rect width="65.51" height="84.96" fill="white"/>
</clipPath>
</defs>
</svg>
